<svg width="61" height="81" viewBox="0 0 61 81" fill="none" xmlns="http://www.w3.org/2000/svg">
<path d="M13.224 15.992C13.144 15.96 13.024 15.88 12.864 15.752C12.704 15.624 12.568 15.408 12.456 15.104C12.344 14.784 12.288 14.344 12.288 13.784C12.304 13.304 12.312 12.928 12.312 12.656C12.328 12.384 12.272 12.248 12.144 12.248C12.016 12.248 11.768 12.376 11.4 12.632C11.048 12.872 10.64 13.2 10.176 13.616C9.712 14.032 9.24 14.496 8.76 15.008C8.6 15.184 8.44 15.352 8.28 15.512C8.136 15.656 7.992 15.752 7.848 15.8C7.704 15.832 7.536 15.776 7.344 15.632L7.08 15.416C7 15.336 6.952 15.256 6.936 15.176C6.92 15.08 6.928 14.976 6.96 14.864L7.512 13.28C7.768 12.704 7.944 12.288 8.04 12.032C8.136 11.76 8.184 11.592 8.184 11.528C8.184 11.448 8.16 11.416 8.112 11.432C7.984 11.448 7.792 11.528 7.536 11.672C7.28 11.8 7.112 11.928 7.032 12.056C6.968 12.056 6.872 12.128 6.744 12.272C6.616 12.416 6.456 12.552 6.264 12.68C6.152 12.872 5.928 13.12 5.592 13.424C5.272 13.728 4.952 14.04 4.632 14.36C4.424 14.536 4.216 14.752 4.008 15.008C3.816 15.264 3.648 15.488 3.504 15.68C3.376 15.872 3.288 15.968 3.24 15.968C3.032 15.968 2.84 15.912 2.664 15.8C2.504 15.688 2.384 15.504 2.304 15.248C2.176 14.976 2.176 14.6 2.304 14.12C2.432 13.624 2.576 12.984 2.736 12.2C2.8 11.96 2.84 11.784 2.856 11.672C2.872 11.56 2.896 11.448 2.928 11.336C2.976 11.208 3.048 11.016 3.144 10.76C3.256 10.504 3.424 10.12 3.648 9.608C3.76 9.304 3.824 9.08 3.84 8.936C3.872 8.776 3.888 8.664 3.888 8.6C3.888 8.44 3.928 8.304 4.008 8.192C4.104 8.08 4.216 8 4.344 7.952C4.472 7.904 4.592 7.896 4.704 7.928C4.88 7.96 5.032 8.048 5.16 8.192C5.304 8.336 5.384 8.536 5.4 8.792C5.416 8.984 5.4 9.16 5.352 9.32C5.304 9.464 5.256 9.6 5.208 9.728L4.944 10.376C4.864 10.552 4.76 10.808 4.632 11.144C4.504 11.48 4.392 11.792 4.296 12.08C4.2 12.352 4.152 12.512 4.152 12.56C4.168 12.608 4.224 12.6 4.32 12.536C4.416 12.456 4.536 12.352 4.68 12.224C4.84 12.08 5 11.944 5.16 11.816C5.496 11.496 5.872 11.192 6.288 10.904C6.72 10.6 7.128 10.344 7.512 10.136C7.896 9.928 8.192 9.792 8.4 9.728C8.672 9.728 8.856 9.776 8.952 9.872C9.064 9.968 9.248 10.144 9.504 10.4C9.616 10.512 9.68 10.656 9.696 10.832C9.712 11.008 9.704 11.176 9.672 11.336C9.656 11.4 9.608 11.56 9.528 11.816C9.448 12.056 9.368 12.288 9.288 12.512C9.224 12.736 9.192 12.848 9.192 12.848C9.192 12.848 9.28 12.768 9.456 12.608C9.648 12.448 9.856 12.28 10.08 12.104C10.304 11.912 10.472 11.768 10.584 11.672C11.208 11.192 11.752 10.888 12.216 10.76C12.68 10.632 13.056 10.8 13.344 11.264C13.536 11.44 13.632 11.632 13.632 11.84C13.648 12.048 13.656 12.408 13.656 12.92C13.672 13.128 13.688 13.376 13.704 13.664C13.72 13.952 13.736 14.216 13.752 14.456C13.784 14.68 13.816 14.816 13.848 14.864C13.896 14.928 13.984 14.984 14.112 15.032C14.256 15.064 14.44 15.096 14.664 15.128C14.904 15.16 15.048 15.264 15.096 15.44C15.144 15.616 15.04 15.784 14.784 15.944C14.544 16.088 14.28 16.152 13.992 16.136C13.704 16.12 13.448 16.072 13.224 15.992ZM17.9544 16.64C17.7464 16.64 17.5784 16.6 17.4504 16.52C17.3384 16.44 17.1944 16.328 17.0184 16.184C16.7144 15.864 16.4984 15.56 16.3704 15.272C16.2424 14.968 16.2024 14.68 16.2504 14.408C16.2984 14.28 16.3144 14.16 16.2984 14.048C16.2984 13.92 16.2984 13.856 16.2984 13.856C16.2184 13.776 16.1944 13.728 16.2264 13.712C16.2584 13.68 16.2904 13.632 16.3224 13.568C16.4184 13.568 16.4504 13.48 16.4184 13.304C16.3864 13.176 16.4504 12.896 16.6104 12.464C16.7704 12.032 16.9704 11.624 17.2104 11.24C17.3064 11.08 17.4504 10.872 17.6424 10.616C17.8344 10.344 18.0424 10.08 18.2664 9.824C18.5064 9.552 18.7224 9.336 18.9144 9.176C19.3144 8.84 19.6664 8.592 19.9704 8.432C20.2744 8.272 20.6024 8.152 20.9544 8.072C21.3064 7.992 21.5464 7.952 21.6744 7.952C21.8184 7.952 22.0104 8.08 22.2504 8.336C22.6184 8.496 22.8824 8.688 23.0424 8.912C23.2184 9.136 23.3304 9.464 23.3784 9.896C23.4264 10.376 23.3864 10.928 23.2584 11.552C23.1464 12.16 22.7704 12.92 22.1304 13.832C21.7304 14.408 21.3624 14.84 21.0264 15.128C20.6904 15.4 20.2904 15.672 19.8264 15.944C19.4904 16.168 19.1864 16.336 18.9144 16.448C18.6424 16.544 18.3224 16.608 17.9544 16.64ZM20.2584 14.096C20.6424 13.664 20.9464 13.256 21.1704 12.872C21.4104 12.488 21.6344 12 21.8424 11.408C21.9064 11.232 21.9464 11.016 21.9624 10.76C21.9784 10.488 21.9704 10.24 21.9384 10.016C21.9224 9.776 21.8664 9.64 21.7704 9.608C21.5784 9.496 21.3464 9.464 21.0744 9.512C20.8024 9.544 20.5064 9.696 20.1864 9.968C19.6904 10.384 19.2584 10.904 18.8904 11.528C18.5224 12.136 18.1624 12.832 17.8104 13.616C17.5704 14.192 17.5144 14.656 17.6424 15.008C17.7864 15.344 18.0824 15.464 18.5304 15.368C18.9944 15.256 19.5704 14.832 20.2584 14.096ZM27.0394 16.784C26.6394 16.816 26.2554 16.792 25.8874 16.712C25.5354 16.632 25.2314 16.496 24.9754 16.304C24.7354 16.096 24.5674 15.848 24.4714 15.56C24.3594 15.336 24.3034 15.184 24.3034 15.104C24.3034 15.008 24.3594 14.928 24.4714 14.864C24.5994 14.864 24.7114 14.904 24.8074 14.984C24.9194 15.048 25.0634 15.12 25.2394 15.2C25.4794 15.408 25.7674 15.52 26.1034 15.536C26.4554 15.552 26.7754 15.496 27.0634 15.368C27.3514 15.24 27.5114 15.08 27.5434 14.888C27.5434 14.824 27.5194 14.712 27.4714 14.552C27.4234 14.392 27.3674 14.224 27.3034 14.048C26.8714 13.44 26.5514 12.84 26.3434 12.248C26.1514 11.64 26.0554 11.144 26.0554 10.76C26.0554 10.472 26.1434 10.168 26.3194 9.848C26.4954 9.512 26.7354 9.232 27.0394 9.008C27.3274 8.704 27.6474 8.432 27.9994 8.192C28.3514 7.952 28.7034 7.744 29.0554 7.568C29.4234 7.392 29.7514 7.264 30.0394 7.184C30.2154 7.184 30.4474 7.208 30.7354 7.256C31.0234 7.304 31.2234 7.36 31.3354 7.424C31.5114 7.488 31.6794 7.664 31.8394 7.952C31.9994 8.224 32.0794 8.496 32.0794 8.768C32.0794 8.88 32.0474 9.024 31.9834 9.2C31.9194 9.376 31.8154 9.584 31.6714 9.824C31.6074 10 31.5354 10.168 31.4554 10.328C31.3754 10.472 31.3354 10.576 31.3354 10.64C31.2554 10.816 31.1434 10.904 30.9994 10.904C30.8714 10.888 30.7354 10.816 30.5914 10.688C30.4634 10.544 30.3594 10.376 30.2794 10.184C30.2154 9.944 30.1914 9.752 30.2074 9.608C30.2234 9.448 30.2874 9.28 30.3994 9.104C30.5754 8.928 30.6634 8.808 30.6634 8.744C30.6634 8.68 30.5754 8.648 30.3994 8.648C30.2874 8.648 30.0794 8.72 29.7754 8.864C29.4874 8.992 29.1754 9.168 28.8394 9.392C28.5194 9.6 28.2394 9.824 27.9994 10.064C27.6954 10.352 27.5114 10.56 27.4474 10.688C27.3994 10.816 27.3754 11.016 27.3754 11.288C27.3754 11.512 27.4234 11.792 27.5194 12.128C27.6314 12.464 27.7434 12.688 27.8554 12.8C27.8554 12.8 27.9114 12.912 28.0234 13.136C28.1354 13.344 28.2714 13.568 28.4314 13.808C28.8954 14.832 29.0154 15.568 28.7914 16.016C28.5674 16.464 27.9834 16.72 27.0394 16.784ZM35.0991 18.2C34.5711 18.12 34.2111 17.92 34.0191 17.6C33.8431 17.296 33.8031 16.824 33.8991 16.184C33.9951 15.88 34.0511 15.608 34.0671 15.368C34.0991 15.112 34.1711 14.952 34.2831 14.888C34.2831 14.888 34.2911 14.864 34.3071 14.816C34.3391 14.768 34.3311 14.72 34.2831 14.672C34.2831 14.464 34.3551 14.176 34.4991 13.808C34.5311 13.712 34.5711 13.6 34.6191 13.472C34.6831 13.328 34.7151 13.256 34.7151 13.256C34.6351 13.128 34.6351 13.024 34.7151 12.944C34.7951 12.864 34.8751 12.792 34.9551 12.728C35.0511 12.648 35.0591 12.56 34.9791 12.464C34.9471 12.4 34.9871 12.256 35.0991 12.032C35.2111 11.792 35.3391 11.544 35.4831 11.288C35.6271 11.032 35.7231 10.832 35.7711 10.688C35.7711 10.656 35.8111 10.544 35.8911 10.352C35.9711 10.16 36.0671 9.936 36.1791 9.68C36.2911 9.424 36.3951 9.192 36.4911 8.984C36.6031 8.776 36.6751 8.64 36.7071 8.576C36.8671 8.496 36.8031 8.44 36.5151 8.408C36.2271 8.376 35.9231 8.368 35.6031 8.384C35.1071 8.368 34.7071 8.344 34.4031 8.312C34.1151 8.28 33.8751 8.208 33.6831 8.096C33.4911 7.872 33.4191 7.712 33.4671 7.616C33.5311 7.504 33.7231 7.44 34.0431 7.424C34.2511 7.408 34.4111 7.4 34.5231 7.4C34.6511 7.4 34.8111 7.392 35.0031 7.376C35.2111 7.344 35.5311 7.304 35.9631 7.256L37.1871 7.16L37.2591 6.752C37.3871 6.544 37.4911 6.36 37.5711 6.2C37.6671 6.024 37.7471 5.848 37.8111 5.672C37.8751 5.496 37.9231 5.312 37.9551 5.12C37.9551 5.12 38.0271 4.992 38.1711 4.736C38.3151 4.464 38.4031 4.184 38.4351 3.896C38.6271 3.576 38.7951 3.288 38.9391 3.032C39.0831 2.76 39.1711 2.592 39.2031 2.528C39.3791 2.384 39.4991 2.312 39.5631 2.312C39.6431 2.312 39.8031 2.392 40.0431 2.552C40.1871 2.632 40.3151 2.728 40.4271 2.84C40.5391 2.952 40.6111 3.072 40.6431 3.2C40.6751 3.312 40.6271 3.424 40.4991 3.536C40.4671 3.6 40.4191 3.72 40.3551 3.896C40.2911 4.056 40.2431 4.192 40.2111 4.304C40.1151 4.416 39.9951 4.6 39.8511 4.856C39.7231 5.096 39.6351 5.344 39.5871 5.6C39.4591 5.872 39.3391 6.12 39.2271 6.344C39.1151 6.552 39.0271 6.656 38.9631 6.656C38.9951 6.816 39.0911 6.896 39.2511 6.896C39.4111 6.88 39.6751 6.864 40.0431 6.848C40.3471 6.816 40.5551 6.784 40.6671 6.752C40.7951 6.704 40.9391 6.72 41.0991 6.8C41.1791 6.912 41.2431 7.04 41.2911 7.184C41.3391 7.328 41.3471 7.464 41.3151 7.592C41.2991 7.704 41.2351 7.784 41.1231 7.832C41.0431 7.832 40.8751 7.88 40.6191 7.976C40.3791 8.056 40.0751 8.104 39.7071 8.12L38.4351 8.24L38.0271 9.056C37.9151 9.264 37.8191 9.456 37.7391 9.632C37.6591 9.792 37.6031 9.888 37.5711 9.92C37.5711 10.016 37.5151 10.16 37.4031 10.352C37.3071 10.544 37.2031 10.752 37.0911 10.976C36.9951 11.248 36.8831 11.496 36.7551 11.72C36.6431 11.944 36.5871 12.056 36.5871 12.056C36.5231 12.056 36.4911 12.104 36.4911 12.2C36.5711 12.392 36.5471 12.536 36.4191 12.632C36.3391 12.68 36.2671 12.752 36.2031 12.848C36.1551 12.928 36.1311 12.968 36.1311 12.968C36.1951 13.032 36.2031 13.112 36.1551 13.208C36.1231 13.304 36.0751 13.408 36.0111 13.52C36.0111 13.648 35.9711 13.832 35.8911 14.072C35.8271 14.312 35.7551 14.536 35.6751 14.744C35.6911 15.032 35.7071 15.216 35.7231 15.296C35.7391 15.376 35.7791 15.408 35.8431 15.392C35.9231 15.408 35.9951 15.408 36.0591 15.392C36.1231 15.376 36.1871 15.368 36.2511 15.368C36.4751 15.272 36.3551 15.832 35.8911 17.048C35.6351 17.448 35.4591 17.736 35.3631 17.912C35.2671 18.104 35.1791 18.2 35.0991 18.2ZM1.464 41.376C1.4 41.376 1.32 41.376 1.224 41.376C1.128 41.392 1.04 41.328 0.96 41.184C0.896 41.104 0.856 40.984 0.84 40.824C0.84 40.664 0.88 40.376 0.96 39.96C1.04 39.688 1.104 39.416 1.152 39.144C1.2 38.888 1.224 38.696 1.224 38.568C1.224 38.504 1.24 38.376 1.272 38.184C1.32 38.008 1.344 37.88 1.344 37.8C1.424 37.672 1.488 37.496 1.536 37.272C1.584 37.048 1.608 36.848 1.608 36.672C1.608 36.48 1.704 36.304 1.896 36.144C1.896 36.016 1.92 35.856 1.968 35.664C2.032 35.472 2.064 35.344 2.064 35.28C2.112 35.056 2.216 34.664 2.376 34.104C2.552 33.528 2.76 32.88 3 32.16C3.256 31.44 3.504 30.736 3.744 30.048C3.984 29.36 4.2 28.776 4.392 28.296C4.584 27.848 4.712 27.464 4.776 27.144C4.856 26.808 4.896 26.56 4.896 26.4C4.896 26.336 4.912 26.288 4.944 26.256C4.976 26.208 5.048 26.12 5.16 25.992C5.32 25.832 5.456 25.784 5.568 25.848C5.696 25.912 5.848 26.008 6.024 26.136C6.152 26.344 6.24 26.52 6.288 26.664C6.352 26.808 6.352 27.056 6.288 27.408C6.288 27.648 6.248 27.856 6.168 28.032C6.088 28.208 6.016 28.344 5.952 28.44C5.888 28.52 5.872 28.552 5.904 28.536C6.56 28.232 7.136 28.072 7.632 28.056C8.144 28.024 8.568 28.112 8.904 28.32C9.256 28.512 9.52 28.784 9.696 29.136C9.872 29.488 9.96 29.896 9.96 30.36C9.96 30.552 9.92 30.784 9.84 31.056C9.76 31.312 9.656 31.552 9.528 31.776C9.416 31.984 9.312 32.136 9.216 32.232C9.152 32.232 9.088 32.288 9.024 32.4C8.96 32.496 8.896 32.608 8.832 32.736C8.704 32.896 8.496 33.08 8.208 33.288C7.936 33.48 7.664 33.64 7.392 33.768C7.12 33.88 6.92 33.912 6.792 33.864C6.792 33.864 6.768 33.872 6.72 33.888C6.688 33.888 6.672 33.928 6.672 34.008C6.672 34.04 6.544 34.112 6.288 34.224C6.032 34.32 5.736 34.416 5.4 34.512C5.064 34.592 4.768 34.632 4.512 34.632C4.176 34.632 3.936 34.568 3.792 34.44C3.76 34.472 3.72 34.52 3.672 34.584C3.64 34.648 3.624 34.704 3.624 34.752C3.624 34.848 3.584 35.032 3.504 35.304C3.44 35.56 3.36 35.808 3.264 36.048C3.168 36.288 3.08 36.408 3 36.408C3 36.408 2.984 36.432 2.952 36.48C2.92 36.528 2.936 36.592 3 36.672C3 36.672 2.992 36.76 2.976 36.936C2.976 37.128 2.936 37.288 2.856 37.416C2.856 37.544 2.832 37.736 2.784 37.992C2.736 38.248 2.68 38.44 2.616 38.568C2.616 38.76 2.584 38.944 2.52 39.12C2.472 39.312 2.416 39.408 2.352 39.408C2.288 39.424 2.248 39.52 2.232 39.696C2.216 39.888 2.208 40.024 2.208 40.104C2.192 40.504 2.112 40.816 1.968 41.04C1.824 41.264 1.656 41.376 1.464 41.376ZM4.368 33.36C4.496 33.36 4.76 33.304 5.16 33.192C5.56 33.08 5.968 32.944 6.384 32.784C6.816 32.608 7.136 32.432 7.344 32.256C7.76 31.888 8.08 31.472 8.304 31.008C8.544 30.528 8.528 30.072 8.256 29.64C8.128 29.416 7.896 29.328 7.56 29.376C7.224 29.408 6.856 29.536 6.456 29.76C6.056 29.984 5.68 30.264 5.328 30.6C5.136 30.808 4.96 31.064 4.8 31.368C4.64 31.672 4.504 31.976 4.392 32.28C4.296 32.584 4.24 32.84 4.224 33.048C4.208 33.256 4.256 33.36 4.368 33.36ZM13.1263 35.64C12.9183 35.64 12.7503 35.6 12.6223 35.52C12.5103 35.44 12.3663 35.328 12.1903 35.184C11.8863 34.864 11.6703 34.56 11.5423 34.272C11.4143 33.968 11.3743 33.68 11.4223 33.408C11.4703 33.28 11.4863 33.16 11.4703 33.048C11.4703 32.92 11.4703 32.856 11.4703 32.856C11.3903 32.776 11.3663 32.728 11.3983 32.712C11.4303 32.68 11.4623 32.632 11.4943 32.568C11.5903 32.568 11.6223 32.48 11.5903 32.304C11.5583 32.176 11.6223 31.896 11.7823 31.464C11.9423 31.032 12.1423 30.624 12.3823 30.24C12.4783 30.08 12.6223 29.872 12.8143 29.616C13.0063 29.344 13.2143 29.08 13.4383 28.824C13.6783 28.552 13.8943 28.336 14.0863 28.176C14.4863 27.84 14.8383 27.592 15.1423 27.432C15.4463 27.272 15.7743 27.152 16.1263 27.072C16.4783 26.992 16.7183 26.952 16.8463 26.952C16.9903 26.952 17.1823 27.08 17.4223 27.336C17.7903 27.496 18.0543 27.688 18.2143 27.912C18.3903 28.136 18.5023 28.464 18.5503 28.896C18.5983 29.376 18.5583 29.928 18.4303 30.552C18.3183 31.16 17.9423 31.92 17.3023 32.832C16.9023 33.408 16.5343 33.84 16.1983 34.128C15.8623 34.4 15.4623 34.672 14.9983 34.944C14.6623 35.168 14.3583 35.336 14.0863 35.448C13.8143 35.544 13.4943 35.608 13.1263 35.64ZM15.4303 33.096C15.8143 32.664 16.1183 32.256 16.3423 31.872C16.5823 31.488 16.8063 31 17.0143 30.408C17.0783 30.232 17.1183 30.016 17.1343 29.76C17.1503 29.488 17.1423 29.24 17.1103 29.016C17.0943 28.776 17.0383 28.64 16.9423 28.608C16.7503 28.496 16.5183 28.464 16.2463 28.512C15.9743 28.544 15.6783 28.696 15.3583 28.968C14.8623 29.384 14.4303 29.904 14.0623 30.528C13.6943 31.136 13.3343 31.832 12.9823 32.616C12.7423 33.192 12.6863 33.656 12.8143 34.008C12.9583 34.344 13.2543 34.464 13.7023 34.368C14.1663 34.256 14.7423 33.832 15.4303 33.096ZM20.0273 40.2C19.8353 40.328 19.6353 40.32 19.4273 40.176C19.2353 40.032 19.0913 39.816 18.9953 39.528C18.8993 39.24 18.9073 38.936 19.0193 38.616C19.0513 38.52 19.0993 38.36 19.1633 38.136C19.2273 37.928 19.2673 37.744 19.2833 37.584C19.2993 37.472 19.3473 37.28 19.4273 37.008C19.5073 36.752 19.5953 36.496 19.6913 36.24C19.8033 35.984 19.8913 35.8 19.9553 35.688C20.0513 35.528 20.1153 35.344 20.1473 35.136C20.1953 34.928 20.2193 34.768 20.2193 34.656C20.2513 34.544 20.2913 34.416 20.3393 34.272C20.4033 34.128 20.4673 34.016 20.5312 33.936C20.5633 33.808 20.6113 33.672 20.6753 33.528C20.7393 33.368 20.8113 33.232 20.8913 33.12C20.9233 33.008 20.9473 32.872 20.9633 32.712C20.9953 32.552 21.0433 32.464 21.1073 32.448C21.1233 32.384 21.1313 32.32 21.1313 32.256C21.1473 32.192 21.1793 32.104 21.2273 31.992C21.2593 31.816 21.3313 31.56 21.4433 31.224C21.5553 30.888 21.6913 30.52 21.8513 30.12C22.0273 29.656 22.1073 29.216 22.0913 28.8C22.0913 28.368 21.9713 28.104 21.7313 28.008C21.6033 27.944 21.5233 27.856 21.4913 27.744C21.4593 27.616 21.4753 27.488 21.5393 27.36C21.6033 27.232 21.6993 27.144 21.8273 27.096C21.9713 27.032 22.1233 27.008 22.2833 27.024C22.4593 27.04 22.6113 27.072 22.7393 27.12C22.8673 27.152 22.9233 27.184 22.9073 27.216C22.9073 27.296 22.9473 27.344 23.0273 27.36C23.0593 27.312 23.1233 27.368 23.2193 27.528C23.3313 27.672 23.4353 27.84 23.5312 28.032C23.6273 28.224 23.6753 28.36 23.6753 28.44C23.6433 28.504 23.6273 28.544 23.6273 28.56C23.6273 28.56 23.6593 28.56 23.7233 28.56C23.7233 28.56 23.8113 28.52 23.9873 28.44C24.1633 28.344 24.3473 28.24 24.5393 28.128C24.7473 28 24.8833 27.904 24.9473 27.84C24.9473 27.84 24.9873 27.824 25.0673 27.792C25.1633 27.744 25.2433 27.688 25.3073 27.624C25.6273 27.496 25.9713 27.472 26.3393 27.552C26.7233 27.632 27.0273 27.776 27.2513 27.984C27.5713 28.384 27.7313 28.768 27.7313 29.136C27.7473 29.504 27.6433 29.968 27.4193 30.528C27.3873 30.608 27.3153 30.744 27.2033 30.936C27.1073 31.112 27.0113 31.28 26.9153 31.44C26.8193 31.584 26.7713 31.656 26.7713 31.656C26.4033 32.232 25.9713 32.712 25.4753 33.096C24.9793 33.48 24.4753 33.816 23.9633 34.104C23.8033 34.216 23.6353 34.304 23.4593 34.368C23.2993 34.416 23.1553 34.448 23.0273 34.464C22.8993 34.464 22.8113 34.448 22.7633 34.416C22.5873 34.288 22.4273 34.016 22.2833 33.6C22.2033 33.808 22.1233 34.016 22.0433 34.224C21.9793 34.416 21.9393 34.544 21.9233 34.608C21.9073 34.72 21.8913 34.816 21.8753 34.896C21.8593 34.96 21.8193 35.016 21.7553 35.064C21.7553 35.064 21.7473 35.096 21.7313 35.16C21.7153 35.224 21.6593 35.32 21.5633 35.448C21.4033 35.912 21.2593 36.312 21.1313 36.648C21.0033 37 20.8993 37.296 20.8193 37.536C20.7393 37.792 20.6753 38.016 20.6273 38.208C20.5953 38.64 20.5073 39.064 20.3633 39.48C20.2193 39.912 20.1073 40.152 20.0273 40.2ZM22.8833 33.36C22.9473 33.328 23.0833 33.24 23.2913 33.096C23.5153 32.936 23.7633 32.752 24.0353 32.544C24.3073 32.32 24.5553 32.112 24.7793 31.92C25.0193 31.728 25.1793 31.584 25.2593 31.488C25.3873 31.344 25.5073 31.192 25.6193 31.032C25.7313 30.856 25.8193 30.664 25.8833 30.456C25.9313 30.328 25.9873 30.184 26.0513 30.024C26.1153 29.864 26.1713 29.712 26.2193 29.568C26.2833 29.44 26.3073 29.312 26.2913 29.184C26.2913 29.04 26.2433 28.92 26.1473 28.824C26.0833 28.808 25.8913 28.856 25.5713 28.968C25.2513 29.064 24.8993 29.232 24.5153 29.472C24.1313 29.696 23.7953 29.992 23.5073 30.36C23.1713 30.792 22.9233 31.24 22.7633 31.704C22.6193 32.168 22.5553 32.56 22.5713 32.88C22.6033 33.2 22.7073 33.36 22.8833 33.36ZM34.6416 35.952C34.5296 36.016 34.3776 35.992 34.1856 35.88C34.0096 35.768 33.8336 35.6 33.6576 35.376C33.5456 35.184 33.4656 34.976 33.4176 34.752C33.3856 34.528 33.3696 34.216 33.3696 33.816C33.3856 33.496 33.3696 33.288 33.3216 33.192C33.2896 33.096 33.2016 33.112 33.0576 33.24C32.9136 33.352 32.6656 33.584 32.3136 33.936C31.9136 34.336 31.5296 34.648 31.1616 34.872C30.8096 35.096 30.5216 35.2 30.2976 35.184C30.1856 35.184 30.0576 35.128 29.9136 35.016C29.7856 34.888 29.6656 34.736 29.5536 34.56C29.4416 34.368 29.3456 34.176 29.2656 33.984C29.1696 33.632 29.1536 33.184 29.2176 32.64C29.2976 32.08 29.4256 31.496 29.6016 30.888C29.7776 30.28 29.9776 29.704 30.2016 29.16C30.4416 28.616 30.6816 28.176 30.9216 27.84C31.1776 27.504 31.4016 27.336 31.5936 27.336C31.7216 27.336 31.8336 27.4 31.9296 27.528C32.0416 27.656 32.1536 27.856 32.2656 28.128C32.3296 28.24 32.3536 28.336 32.3376 28.416C32.3376 28.496 32.2736 28.592 32.1456 28.704C32.0016 28.896 31.8336 29.184 31.6416 29.568C31.4656 29.952 31.2896 30.368 31.1136 30.816C30.9536 31.264 30.8096 31.696 30.6816 32.112C30.5536 32.528 30.4656 32.872 30.4176 33.144C30.3696 33.4 30.3776 33.528 30.4416 33.528C30.6656 33.528 30.9296 33.44 31.2336 33.264C31.5536 33.072 31.8576 32.84 32.1456 32.568C32.4816 32.232 32.7776 31.864 33.0336 31.464C33.3056 31.064 33.5776 30.64 33.8496 30.192C34.0576 29.872 34.2736 29.52 34.4976 29.136C34.7376 28.752 34.8896 28.48 34.9536 28.32C35.1776 27.904 35.3456 27.624 35.4576 27.48C35.5696 27.32 35.7056 27.216 35.8656 27.168C35.9456 27.168 36.0176 27.168 36.0816 27.168C36.1616 27.168 36.2016 27.168 36.2016 27.168C36.2976 27.184 36.4096 27.256 36.5376 27.384C36.6656 27.448 36.7376 27.512 36.7536 27.576C36.7696 27.624 36.7776 27.688 36.7776 27.768C36.7136 27.928 36.6096 28.168 36.4656 28.488C36.3376 28.792 36.2416 29.016 36.1776 29.16C35.8736 29.848 35.5696 30.528 35.2656 31.2C34.9776 31.856 34.7696 32.528 34.6416 33.216C34.6096 33.44 34.6016 33.704 34.6176 34.008C34.6496 34.296 34.6976 34.504 34.7616 34.632C34.8096 34.728 34.8656 34.84 34.9296 34.968C35.0096 35.08 35.0976 35.176 35.1936 35.256C35.3376 35.352 35.3616 35.456 35.2656 35.568C35.1856 35.68 35.0736 35.776 34.9296 35.856C34.7856 35.92 34.6896 35.952 34.6416 35.952ZM37.9084 36.216C37.7004 36.136 37.5484 36.016 37.4524 35.856C37.3564 35.68 37.3004 35.432 37.2844 35.112C37.2844 34.92 37.3164 34.664 37.3804 34.344C37.4444 34.024 37.5164 33.656 37.5964 33.24C37.5964 33.208 37.5964 33.176 37.5964 33.144C37.6124 33.096 37.6204 33.064 37.6204 33.048C37.6364 32.984 37.6524 32.888 37.6684 32.76C37.7004 32.632 37.7244 32.536 37.7404 32.472C37.7564 32.392 37.7644 32.392 37.7644 32.472L37.9324 31.824C38.0124 31.536 38.0924 31.248 38.1724 30.96C38.2524 30.672 38.3244 30.424 38.3884 30.216C38.4524 29.992 38.4924 29.864 38.5084 29.832C38.5084 29.832 38.5404 29.744 38.6044 29.568C38.6684 29.376 38.7324 29.192 38.7964 29.016C39.0684 28.264 39.3164 27.632 39.5404 27.12C39.7644 26.592 39.9644 26.208 40.1404 25.968C40.1564 25.92 40.1804 25.864 40.2124 25.8C40.2444 25.72 40.2684 25.656 40.2844 25.608C40.3004 25.48 40.3164 25.384 40.3324 25.32C40.3644 25.24 40.4044 25.168 40.4524 25.104C40.4844 25.04 40.5324 24.96 40.5964 24.864C40.6604 24.752 40.7324 24.616 40.8124 24.456L40.9084 24.192C41.0044 23.984 41.1244 23.752 41.2684 23.496C41.4124 23.24 41.5164 23.056 41.5804 22.944C41.6444 22.8 41.7404 22.632 41.8684 22.44C41.9964 22.232 42.0924 22.096 42.1564 22.032L42.1324 22.008C42.2124 21.864 42.3084 21.784 42.4204 21.768C42.5484 21.736 42.6844 21.72 42.8284 21.72C43.0524 21.72 43.1804 21.752 43.2124 21.816C43.2444 21.88 43.2604 22.024 43.2604 22.248C43.2604 22.488 43.2524 22.664 43.2364 22.776C43.2364 22.872 43.1724 22.984 43.0444 23.112H43.0684C43.1004 23.08 43.0924 23.12 43.0444 23.232C42.9964 23.328 42.9564 23.4 42.9244 23.448C42.8924 23.528 42.8524 23.616 42.8044 23.712C42.7724 23.808 42.7324 23.88 42.6844 23.928C42.6364 23.992 42.5164 24.208 42.3244 24.576C42.1484 24.928 41.9404 25.344 41.7004 25.824C41.4764 26.304 41.2604 26.768 41.0524 27.216C40.8444 27.664 40.6924 28.008 40.5964 28.248L40.4764 28.608C40.4444 28.672 40.4284 28.72 40.4284 28.752C40.3804 28.864 40.3324 28.976 40.2844 29.088C40.2364 29.2 40.1884 29.296 40.1404 29.376L39.7324 30.768L39.6124 31.272L39.3964 31.8L39.2524 32.256C39.2204 32.352 39.1964 32.44 39.1804 32.52C39.1644 32.6 39.1324 32.664 39.0844 32.712C39.0844 32.728 39.0764 32.752 39.0604 32.784C39.0604 32.8 39.0604 32.816 39.0604 32.832C38.9964 33.088 38.9244 33.448 38.8444 33.912C38.7644 34.376 38.7084 34.864 38.6764 35.376C38.6764 35.392 38.6684 35.408 38.6524 35.424C38.6524 35.44 38.6524 35.456 38.6524 35.472C38.6044 35.808 38.5244 36.032 38.4124 36.144C38.3004 36.256 38.1324 36.28 37.9084 36.216ZM43.4271 35.208C43.2351 35.24 43.0271 35.208 42.8031 35.112C42.5791 35.016 42.3791 34.88 42.2031 34.704C42.0431 34.528 41.9391 34.344 41.8911 34.152C41.8271 33.816 41.8671 33.4 42.0111 32.904C42.1711 32.392 42.3951 31.856 42.6831 31.296C42.9871 30.72 43.3231 30.168 43.6911 29.64C44.0751 29.112 44.4671 28.656 44.8671 28.272C45.2831 27.872 45.6671 27.6 46.0191 27.456C46.1951 27.344 46.3311 27.272 46.4271 27.24C46.5391 27.192 46.6511 27.184 46.7631 27.216C46.8911 27.248 47.0751 27.328 47.3151 27.456C47.5391 27.52 47.7071 27.592 47.8191 27.672C47.9311 27.752 48.0751 27.912 48.2511 28.152C48.3791 28.392 48.4751 28.632 48.5391 28.872C48.6031 29.112 48.6591 29.384 48.7071 29.688C48.8351 30.088 48.8831 30.352 48.8511 30.48C48.8191 30.592 48.7711 30.68 48.7071 30.744C48.5791 30.904 48.5471 30.984 48.6111 30.984C48.6111 30.984 48.6031 31.016 48.5871 31.08C48.5871 31.128 48.5551 31.208 48.4911 31.32C48.3791 31.672 48.2911 32.04 48.2271 32.424C48.1791 32.792 48.1871 33.096 48.2511 33.336C48.3791 33.688 48.6111 33.896 48.9471 33.96C49.2831 34.024 49.6271 33.88 49.9791 33.528C50.1551 33.4 50.3231 33.288 50.4831 33.192C50.6431 33.08 50.7231 33.088 50.7231 33.216C50.7231 33.216 50.7471 33.24 50.7951 33.288C50.8431 33.32 50.8991 33.336 50.9631 33.336C51.0431 33.336 51.0911 33.368 51.1071 33.432C51.1391 33.496 51.1391 33.584 51.1071 33.696C51.0911 33.792 51.0431 33.904 50.9631 34.032C50.7231 34.272 50.6031 34.432 50.6031 34.512C50.6031 34.512 50.5711 34.544 50.5071 34.608C50.4591 34.656 50.3711 34.736 50.2431 34.848C49.9551 35.024 49.5871 35.112 49.1391 35.112C48.7071 35.112 48.3711 35.024 48.1311 34.848C47.8911 34.672 47.6671 34.432 47.4591 34.128C47.2671 33.824 47.1391 33.56 47.0751 33.336L46.9551 33.096L46.2591 33.552C46.0831 33.728 45.8911 33.896 45.6831 34.056C45.4911 34.216 45.3631 34.328 45.2991 34.392C45.2511 34.456 45.1951 34.512 45.1311 34.56C45.0831 34.608 45.0271 34.632 44.9631 34.632C44.8991 34.632 44.8431 34.632 44.7951 34.632C44.7471 34.632 44.7231 34.632 44.7231 34.632C44.7231 34.696 44.6431 34.776 44.4831 34.872C44.3391 34.968 44.1631 35.048 43.9551 35.112C43.7631 35.176 43.5871 35.208 43.4271 35.208ZM43.1871 33.912C43.2831 33.912 43.4511 33.84 43.6911 33.696C43.9471 33.536 44.2271 33.352 44.5311 33.144C44.8511 32.936 45.1311 32.728 45.3711 32.52C45.6271 32.312 45.8031 32.152 45.8991 32.04C45.9631 31.976 46.0671 31.872 46.2111 31.728C46.3551 31.568 46.4831 31.432 46.5951 31.32C46.9631 30.904 47.2191 30.448 47.3631 29.952C47.5071 29.44 47.4911 29.04 47.3151 28.752C47.2511 28.576 47.1711 28.48 47.0751 28.464C46.9791 28.448 46.7791 28.504 46.4751 28.632C46.2831 28.744 46.0431 28.96 45.7551 29.28C45.4831 29.584 45.1871 29.944 44.8671 30.36C44.5631 30.76 44.2751 31.176 44.0031 31.608C43.7311 32.04 43.5071 32.44 43.3311 32.808C43.1551 33.176 43.0671 33.464 43.0671 33.672C43.0671 33.736 43.0831 33.792 43.1151 33.84C43.1631 33.888 43.1871 33.912 43.1871 33.912ZM52.2388 35.16C52.0948 35.048 51.9908 34.936 51.9268 34.824C51.8788 34.712 51.8788 34.496 51.9268 34.176C51.9748 33.728 52.0388 33.336 52.1188 33C52.1988 32.648 52.2948 32.248 52.4068 31.8C52.4388 31.608 52.5268 31.28 52.6708 30.816C52.8308 30.352 53.0228 29.848 53.2468 29.304C53.4708 28.76 53.6948 28.248 53.9188 27.768C54.1428 27.272 54.3348 26.904 54.4948 26.664C54.6228 26.568 54.7748 26.528 54.9508 26.544C55.1428 26.56 55.3028 26.632 55.4308 26.76C55.6068 26.904 55.6308 27.16 55.5028 27.528C55.3908 27.88 55.1508 28.44 54.7828 29.208C54.5908 29.64 54.4468 29.968 54.3508 30.192C54.2548 30.4 54.2148 30.528 54.2308 30.576C54.2468 30.608 54.3188 30.584 54.4468 30.504C54.5428 30.328 54.7188 30.128 54.9748 29.904C55.2308 29.664 55.5028 29.432 55.7908 29.208C56.0788 28.984 56.3508 28.784 56.6068 28.608C56.8628 28.432 57.0388 28.32 57.1348 28.272C57.2628 28.192 57.4068 28.128 57.5668 28.08C57.7428 28.016 57.8628 27.968 57.9268 27.936C58.2948 27.76 58.6708 27.696 59.0548 27.744C59.4388 27.792 59.6788 27.936 59.7748 28.176C59.7908 28.304 59.8388 28.4 59.9188 28.464C60.0148 28.528 60.0628 28.56 60.0628 28.56C60.1268 28.56 60.1588 28.584 60.1588 28.632C60.1748 28.68 60.1828 28.704 60.1828 28.704C60.1828 28.816 60.0948 28.888 59.9188 28.92C59.7588 28.936 59.5508 28.952 59.2948 28.968C59.0868 28.984 58.9028 29.024 58.7428 29.088C58.5828 29.152 58.3908 29.232 58.1668 29.328C57.5588 29.68 56.9748 30.024 56.4148 30.36C55.8708 30.696 55.3428 31.144 54.8308 31.704C54.7188 31.832 54.6068 31.984 54.4948 32.16C54.3828 32.336 54.2628 32.528 54.1348 32.736C54.0548 32.816 53.9748 32.992 53.8948 33.264C53.8148 33.536 53.7428 33.8 53.6788 34.056C53.6308 34.296 53.6068 34.44 53.6068 34.488C53.6068 34.488 53.5828 34.568 53.5348 34.728C53.4868 34.872 53.4068 35.016 53.2948 35.16C53.1028 35.416 52.9428 35.544 52.8148 35.544C52.6868 35.544 52.4948 35.416 52.2388 35.16Z" fill="#E55A2D"/>
<path d="M27.0046 47.0643C26.9691 46.7904 27.1623 46.5396 27.4361 46.5041C27.71 46.4686 27.9608 46.6619 27.9963 46.9357L27.5004 47L27.0046 47.0643ZM1.68511 77.3881C1.47079 77.2139 1.43821 76.899 1.61235 76.6847L4.45001 73.1922C4.62415 72.9779 4.93905 72.9453 5.15337 73.1194C5.36769 73.2936 5.40026 73.6085 5.22613 73.8228L2.70376 76.9272L5.80821 79.4496C6.02253 79.6237 6.05511 79.9386 5.88097 80.153C5.70684 80.3673 5.39194 80.3999 5.17762 80.2257L1.68511 77.3881ZM27.5004 47L27.9963 46.9357C28.5908 51.5218 28.0074 58.54 24.3174 64.731C20.6114 70.9488 13.8004 76.282 2.05185 77.4973L2.0004 77L1.94896 76.5027C13.4004 75.318 19.9227 70.1512 23.4584 64.219C27.0101 58.26 27.5767 51.4782 27.0046 47.0643L27.5004 47Z" fill="#E55A2D"/>
</svg>
